<?xml version="1.0" standalone="no"?>
<!DOCTYPE svg PUBLIC "-//W3C//DTD SVG 20010904//EN"
 "http://www.w3.org/TR/2001/REC-SVG-20010904/DTD/svg10.dtd">
<svg version="1.0" xmlns="http://www.w3.org/2000/svg"
 width="534.000000pt" height="523.000000pt" viewBox="0 0 534.000000 523.000000"
 preserveAspectRatio="xMidYMid meet">

<g transform="translate(0.000000,523.000000) scale(0.100000,-0.100000)"
fill="#000000" stroke="none">
<path d="M2980 4614 c0 -14 -7 -32 -15 -40 -9 -9 -15 -34 -15 -59 0 -24 -5
-45 -11 -47 -6 -2 -14 -27 -17 -56 -2 -29 -8 -52 -12 -52 -4 0 -10 -23 -13
-52 -4 -28 -10 -54 -15 -57 -5 -3 -12 -28 -15 -56 -3 -27 -10 -51 -16 -53 -6
-2 -11 -22 -11 -44 0 -22 -7 -46 -15 -54 -10 -10 -15 -35 -15 -69 0 -29 -5
-55 -11 -57 -5 -2 -13 -22 -16 -46 -3 -23 -10 -42 -14 -42 -5 0 -9 -25 -9 -55
0 -42 -3 -55 -15 -55 -11 0 -15 -12 -15 -51 0 -31 -6 -56 -15 -65 -9 -9 -15
-34 -15 -59 0 -24 -5 -45 -10 -47 -6 -2 -13 -26 -17 -53 -3 -28 -9 -52 -13
-55 -4 -3 -10 -27 -13 -55 -3 -27 -10 -51 -16 -53 -17 -6 -13 -49 5 -56 9 -3
27 -6 40 -6 13 0 24 -4 24 -10 0 -5 25 -10 55 -10 42 0 57 -4 62 -16 5 -13 7
-13 14 -2 7 10 9 10 9 1 0 -8 15 -13 39 -13 22 0 41 -5 44 -13 2 -7 16 -13 31
-15 21 -1 26 2 26 22 0 13 7 26 15 30 10 3 15 19 15 46 0 22 5 40 10 40 6 0
10 13 10 29 0 16 7 36 15 45 8 8 15 32 15 55 0 22 7 46 15 55 8 8 15 32 15 54
0 26 5 42 15 46 10 4 15 20 15 51 0 25 4 45 9 45 6 0 13 20 17 45 3 25 10 45
15 45 5 0 9 18 9 40 0 24 6 42 14 47 9 5 16 27 17 56 2 31 7 47 16 47 9 0 13
14 13 44 0 24 5 46 11 48 6 2 14 27 17 56 2 29 8 52 12 52 4 0 10 18 14 39 3
22 10 41 16 43 5 1 10 20 12 42 1 21 8 40 15 43 8 3 13 23 13 53 0 33 5 50 15
54 10 4 15 20 15 51 0 29 4 45 13 45 22 0 -17 20 -40 20 -13 0 -23 4 -23 9 0
6 -20 13 -45 17 -25 3 -45 10 -45 15 0 5 -13 9 -29 9 -16 0 -36 7 -45 15 -8 8
-32 15 -55 15 -30 0 -41 4 -41 15 0 11 -11 15 -40 15 -36 0 -40 -2 -40 -26z"/>
<path d="M3540 4460 c0 -5 -6 -10 -14 -10 -9 0 -16 -17 -20 -45 -4 -25 -11
-45 -17 -45 -5 0 -9 -18 -9 -40 0 -29 -4 -40 -15 -40 -11 0 -15 -11 -15 -41 0
-23 -7 -47 -15 -55 -8 -9 -15 -34 -15 -57 0 -28 -3 -37 -9 -28 -6 9 -11 -4
-16 -40 -4 -30 -11 -56 -16 -59 -4 -3 -9 -22 -11 -43 -1 -22 -7 -37 -15 -37
-8 0 -13 -14 -13 -40 0 -22 -4 -40 -10 -40 -5 0 -12 -17 -15 -37 -3 -21 -12
-51 -20 -66 -8 -16 -15 -44 -15 -63 0 -19 -4 -34 -9 -34 -5 0 -11 -18 -15 -40
-3 -22 -11 -40 -16 -40 -6 0 -10 -18 -10 -40 0 -27 -5 -43 -15 -46 -10 -4 -15
-20 -15 -45 0 -21 -4 -39 -9 -39 -5 0 -12 -20 -15 -45 -4 -25 -11 -45 -16 -45
-4 0 -11 -22 -15 -50 -4 -27 -10 -50 -15 -50 -4 0 -10 -22 -14 -49 -4 -27 -12
-51 -19 -54 -6 -2 7 -7 31 -10 23 -4 42 -12 42 -17 0 -6 14 -10 30 -10 20 0
30 -5 30 -15 0 -24 19 -17 26 10 3 14 10 25 14 25 4 0 10 19 13 42 3 24 11 44
16 46 6 2 11 21 11 43 0 28 4 39 15 39 11 0 15 11 15 39 0 22 5 41 10 43 6 2
13 21 17 43 3 22 10 42 14 45 4 3 11 19 14 35 14 71 33 129 43 133 7 2 12 19
12 39 0 19 7 41 15 49 8 9 15 28 15 44 0 16 5 30 10 32 6 2 13 21 17 43 3 22
10 42 14 45 5 4 10 23 11 43 2 25 8 37 18 37 13 0 13 1 0 10 -10 6 -11 10 -2
10 7 0 12 14 12 34 0 19 7 41 15 50 8 8 15 31 15 50 0 25 4 36 15 36 11 0 15
11 15 39 0 22 5 41 11 43 5 2 13 22 16 46 3 23 10 42 14 42 5 0 9 13 9 29 0
16 7 36 15 45 8 8 15 24 15 35 0 16 -8 22 -40 27 -22 4 -40 10 -40 14 0 5 -13
11 -30 15 -16 4 -30 11 -30 16 0 5 -4 9 -10 9 -5 0 -10 -4 -10 -10z"/>
<path d="M3810 4327 c0 -8 -5 -17 -11 -19 -5 -2 -13 -22 -16 -46 -3 -23 -10
-42 -14 -42 -5 0 -9 -13 -9 -29 0 -16 -7 -36 -15 -45 -8 -8 -15 -26 -15 -40 0
-13 -7 -31 -15 -40 -8 -8 -15 -32 -15 -55 0 -30 -4 -41 -15 -41 -11 0 -15 -11
-15 -40 0 -22 -4 -40 -10 -40 -5 0 -13 -18 -16 -40 -4 -22 -10 -40 -15 -40 -5
0 -9 -13 -9 -29 0 -16 -7 -36 -15 -45 -8 -8 -15 -28 -15 -45 0 -16 -7 -36 -15
-45 -8 -8 -15 -31 -15 -50 0 -20 -4 -36 -10 -36 -5 0 -13 -18 -16 -40 -4 -22
-10 -40 -14 -40 -4 0 -10 -19 -13 -42 -3 -24 -11 -44 -16 -46 -6 -2 -11 -15
-11 -29 0 -13 -7 -31 -15 -39 -8 -9 -15 -27 -15 -40 0 -14 -7 -32 -15 -40 -8
-9 -15 -34 -15 -57 0 -27 -3 -37 -9 -29 -5 9 -10 0 -14 -29 -3 -23 -10 -45
-15 -48 -6 -3 -12 -29 -13 -56 -3 -41 0 -50 14 -53 9 -2 17 -8 17 -13 0 -5 5
-9 10 -9 6 0 10 9 10 20 0 11 7 23 15 26 10 4 15 20 15 44 0 24 5 40 15 44 10
3 15 19 15 46 0 29 4 40 15 40 10 0 15 10 15 30 0 17 5 30 10 30 6 0 10 16 10
35 0 22 6 38 15 41 10 4 15 20 15 44 0 24 5 40 15 44 9 3 15 19 15 41 0 20 7
43 15 51 8 9 15 29 15 45 0 16 4 29 10 29 5 0 13 18 16 40 4 22 10 40 15 40 5
0 9 13 9 29 0 16 7 36 15 45 8 8 15 32 15 55 0 30 4 41 15 41 9 0 15 10 15 26
0 14 7 32 15 40 8 9 15 29 15 45 0 16 5 29 10 29 6 0 10 16 10 35 0 23 6 38
16 42 13 5 13 7 2 14 -10 7 -10 9 0 9 7 0 12 13 12 30 0 20 5 30 15 30 11 0
15 11 15 41 0 23 7 47 15 55 8 9 15 29 15 45 0 16 5 29 10 29 14 0 12 19 -4
35 -22 22 -66 30 -66 12z"/>
<path d="M3950 4269 c0 -6 -7 -17 -15 -25 -8 -9 -15 -29 -15 -45 0 -17 -7 -37
-15 -45 -8 -9 -15 -29 -15 -45 0 -17 -4 -28 -9 -25 -5 3 -11 -13 -14 -36 -3
-24 -11 -44 -16 -46 -6 -2 -11 -16 -11 -32 0 -16 -7 -30 -15 -34 -9 -3 -15
-19 -15 -41 0 -19 -4 -35 -10 -35 -5 0 -13 -18 -16 -40 -4 -22 -10 -40 -15
-40 -5 0 -9 -13 -9 -29 0 -16 -6 -36 -13 -43 -8 -7 -17 -31 -20 -53 -4 -22
-11 -41 -17 -43 -5 -2 -10 -21 -10 -43 0 -28 -4 -39 -15 -39 -10 0 -15 -10
-15 -30 0 -16 -4 -30 -9 -30 -5 0 -11 -18 -15 -40 -3 -22 -11 -40 -16 -40 -6
0 -10 -18 -10 -40 0 -29 -4 -40 -15 -40 -11 0 -15 -11 -15 -40 0 -27 -5 -43
-15 -46 -9 -4 -15 -19 -15 -41 0 -19 -7 -41 -15 -49 -8 -9 -15 -29 -15 -45 0
-16 -4 -29 -10 -29 -5 0 -10 -11 -10 -25 0 -14 -7 -28 -15 -31 -17 -7 -21 -84
-4 -84 18 0 36 24 44 58 3 18 11 32 16 32 5 0 9 18 9 40 0 29 4 40 15 40 11 0
15 11 15 40 0 29 4 40 15 40 11 0 15 11 15 40 0 22 4 40 10 40 5 0 13 18 16
41 5 27 10 36 15 27 6 -8 9 3 9 30 0 31 4 42 15 42 11 0 15 11 15 39 0 25 5
41 15 45 10 3 15 19 15 45 0 25 5 41 15 45 9 3 15 19 15 41 0 19 5 35 10 35 6
0 10 11 10 25 0 14 7 28 15 31 10 4 15 20 15 45 0 28 4 39 15 39 11 0 15 11
15 40 0 22 4 40 10 40 5 0 13 18 16 40 4 22 10 40 14 40 4 0 10 19 13 42 3 24
11 44 16 46 6 2 11 15 11 28 0 14 7 27 15 30 9 4 15 19 15 41 0 19 7 41 15 49
9 9 15 34 15 60 0 32 -4 44 -15 44 -8 0 -15 -5 -15 -11z"/>
<path d="M4029 4212 c-9 -10 -19 -31 -23 -45 -3 -15 -11 -27 -16 -27 -6 0 -10
-18 -10 -40 0 -29 -4 -40 -15 -40 -11 0 -15 -12 -15 -45 0 -33 -4 -45 -15 -45
-11 0 -15 -11 -15 -40 0 -29 -4 -40 -15 -40 -10 0 -15 -10 -15 -30 0 -16 -4
-30 -9 -30 -5 0 -11 -18 -15 -40 -3 -22 -11 -40 -16 -40 -6 0 -10 -18 -10 -40
0 -29 -4 -40 -15 -40 -11 0 -15 -11 -15 -40 0 -22 -4 -40 -9 -40 -5 0 -19 -31
-31 -70 -12 -38 -25 -70 -30 -70 -4 0 -10 -19 -13 -42 -3 -24 -11 -44 -16 -46
-6 -2 -11 -21 -11 -43 0 -28 -4 -39 -15 -39 -10 0 -15 -10 -15 -34 0 -19 -4
-37 -9 -41 -5 -3 -12 -19 -16 -35 -4 -17 -11 -30 -16 -30 -5 0 -9 -13 -9 -29
0 -16 -7 -36 -15 -45 -8 -8 -15 -29 -15 -46 0 -18 -6 -33 -15 -36 -9 -4 -15
-19 -15 -35 0 -16 -4 -29 -10 -29 -5 0 -10 -7 -10 -15 0 -8 5 -15 10 -15 6 0
10 -7 10 -15 0 -8 7 -15 15 -15 8 0 15 -4 15 -9 0 -5 11 -12 25 -15 14 -4 25
-11 25 -16 0 -6 7 -10 15 -10 8 0 15 -7 15 -15 0 -8 7 -15 15 -15 8 0 15 7 15
15 0 8 7 15 15 15 11 0 15 11 15 40 0 29 4 40 15 40 10 0 15 10 15 30 0 17 4
30 9 30 5 0 11 18 15 40 3 22 10 40 15 40 6 0 11 15 13 33 2 17 8 31 14 30 5
-1 11 14 12 34 2 19 9 42 17 50 8 8 15 28 15 44 0 16 5 29 10 29 6 0 10 11 10
25 0 14 7 28 15 31 8 4 15 18 15 34 0 16 7 35 15 44 8 8 15 28 15 44 0 17 6
32 15 36 9 3 15 18 15 36 0 16 4 30 9 30 5 0 11 18 15 40 3 22 11 40 16 40 6
0 10 14 10 30 0 20 5 30 15 30 11 0 15 11 15 40 0 29 4 40 15 40 10 0 15 10
15 30 0 17 4 30 10 30 5 0 13 18 16 40 4 22 10 40 14 40 4 0 10 18 14 40 3 22
11 40 16 40 6 0 10 14 10 30 0 20 5 30 15 30 11 0 15 11 15 40 0 29 4 40 15
40 8 0 15 7 15 15 0 8 -7 15 -15 15 -8 0 -15 6 -15 14 0 8 -10 14 -24 14 -14
0 -32 7 -41 16 -9 9 -22 16 -30 16 -7 0 -15 4 -17 9 -7 19 -44 21 -59 3z"/>
<path d="M740 4095 c0 -8 5 -15 10 -15 6 0 10 7 10 15 0 8 -4 15 -10 15 -5 0
-10 -7 -10 -15z"/>
<path d="M750 4050 c8 -5 20 -10 25 -10 6 0 3 5 -5 10 -8 5 -19 10 -25 10 -5
0 -3 -5 5 -10z"/>
<path d="M737 4034 c-4 -4 -7 -87 -7 -185 0 -97 -4 -179 -9 -181 -7 -2 -26
-377 -23 -451 0 -9 -3 -15 -8 -12 -5 3 -5 -9 1 -27 11 -41 11 -47 -1 -28 -6
10 -10 -53 -10 -188 0 -176 -2 -203 -16 -209 -13 -5 -13 -7 -2 -14 11 -7 10
-11 -2 -20 -11 -8 -12 -12 -2 -16 14 -6 17 -63 2 -63 -6 0 -10 -93 -10 -260 0
-144 4 -260 9 -260 15 0 19 37 21 207 0 92 5 170 10 173 5 3 5 12 0 20 -6 8
-9 22 -9 30 0 10 3 8 9 -5 6 -14 9 2 9 50 2 147 14 300 25 308 8 6 7 10 -1 14
-15 5 -18 53 -4 53 6 0 11 72 13 165 2 134 6 168 18 176 11 8 12 12 3 16 -15
6 -18 63 -3 63 6 0 10 71 10 194 0 146 3 196 13 200 10 5 10 7 0 12 -7 3 -13
14 -13 24 0 10 6 21 13 24 10 5 10 7 0 12 -18 8 -16 51 2 58 11 4 15 21 15 61
0 30 -4 55 -9 55 -5 0 -16 2 -23 5 -8 3 -17 2 -21 -1z"/>
<path d="M4353 4023 c-7 -2 -13 -20 -13 -39 0 -22 -6 -37 -15 -40 -8 -4 -15
-17 -15 -30 0 -13 -4 -24 -10 -24 -5 0 -13 -18 -16 -40 -4 -22 -10 -40 -15
-40 -5 0 -12 -18 -15 -41 -5 -27 -10 -36 -15 -27 -6 9 -9 2 -9 -19 0 -17 -7
-38 -15 -47 -8 -8 -15 -24 -15 -36 0 -12 -7 -28 -15 -36 -8 -9 -15 -27 -15
-40 0 -14 -7 -32 -15 -40 -13 -13 -20 -42 -16 -66 0 -5 -3 -8 -8 -8 -5 0 -12
-13 -16 -30 -4 -16 -11 -30 -16 -30 -5 0 -9 -12 -9 -26 0 -14 -7 -32 -15 -40
-8 -9 -15 -29 -15 -45 0 -19 -5 -29 -15 -29 -10 0 -15 -10 -15 -30 0 -16 -4
-30 -10 -30 -5 0 -12 -16 -16 -35 -3 -19 -10 -35 -15 -35 -5 0 -9 -13 -9 -30
0 -20 -5 -30 -15 -30 -11 0 -15 -11 -15 -39 0 -25 -5 -41 -15 -45 -8 -3 -15
-17 -15 -31 0 -14 -4 -25 -10 -25 -5 0 -13 -18 -16 -40 -4 -22 -10 -40 -15
-40 -5 0 -9 -13 -9 -30 0 -20 -5 -30 -15 -30 -10 0 -15 -10 -15 -32 0 -18 -3
-43 -6 -55 -5 -17 -2 -23 9 -23 8 0 17 -7 21 -15 8 -23 23 -18 30 10 4 14 11
25 16 25 6 0 10 14 10 30 0 20 5 30 15 30 10 0 15 10 15 30 0 17 4 30 10 30 5
0 13 18 16 40 4 22 10 40 15 40 5 0 9 11 9 25 0 14 7 28 15 31 8 4 15 18 15
34 0 16 7 35 15 44 8 8 15 26 15 39 0 14 7 27 15 31 9 3 15 18 15 35 0 16 6
31 15 35 8 3 15 16 15 30 0 14 5 28 10 31 6 3 10 17 10 30 0 13 7 30 15 39 8
8 15 26 15 40 0 16 6 26 15 26 9 0 15 10 15 26 0 14 7 32 15 40 8 9 15 29 15
45 0 16 4 29 9 29 5 0 12 14 16 30 4 17 11 30 16 30 5 0 9 13 9 29 0 16 7 36
15 45 8 8 15 24 15 36 0 12 7 28 15 36 8 9 15 24 15 35 0 10 4 19 9 19 5 0 12
18 16 40 4 22 11 40 16 40 5 0 9 11 9 24 0 14 7 31 15 40 8 8 15 26 15 39 0
14 7 27 15 31 8 3 15 10 15 16 0 5 -7 10 -15 10 -8 0 -15 7 -15 15 0 15 -39
20 -67 8z"/>
<path d="M4548 3871 c-10 -10 -18 -30 -18 -44 0 -15 -4 -27 -10 -27 -5 0 -12
-11 -16 -25 -3 -14 -10 -25 -15 -25 -5 0 -9 -13 -9 -29 0 -16 -7 -36 -15 -45
-8 -8 -15 -26 -15 -40 0 -16 -6 -26 -15 -26 -11 0 -15 -11 -15 -40 0 -29 -4
-40 -15 -40 -9 0 -15 -9 -15 -25 0 -14 -4 -25 -10 -25 -5 0 -10 -13 -10 -30 0
-20 -5 -30 -15 -30 -10 0 -15 -10 -15 -30 0 -20 -5 -30 -15 -30 -11 0 -15 -11
-15 -40 0 -29 -4 -40 -15 -40 -10 0 -15 -10 -15 -30 0 -16 -4 -30 -9 -30 -5 0
-12 -13 -16 -30 -4 -16 -11 -32 -16 -35 -5 -4 -9 -17 -9 -31 0 -14 -7 -27 -15
-30 -9 -4 -15 -19 -15 -35 0 -19 -5 -29 -15 -29 -11 0 -15 -11 -15 -39 0 -25
-5 -41 -15 -45 -8 -3 -15 -17 -15 -31 0 -14 -4 -25 -9 -25 -5 0 -12 -13 -16
-30 -4 -16 -11 -30 -16 -30 -5 0 -9 -10 -9 -23 0 -13 -7 -32 -15 -43 -8 -10
-15 -29 -15 -40 0 -12 -7 -24 -15 -28 -8 -3 -15 -17 -15 -31 0 -14 -4 -25 -10
-25 -5 0 -10 -4 -10 -9 0 -15 40 -24 54 -12 7 6 16 7 20 3 4 -4 7 -2 6 3 -7
33 1 75 15 75 9 0 15 9 15 25 0 14 5 25 10 25 6 0 10 14 10 30 0 20 5 30 15
30 11 0 15 11 15 40 0 29 4 40 15 40 10 0 15 10 15 30 0 20 5 30 15 30 10 0
15 10 15 31 0 16 4 28 9 25 5 -3 11 12 15 34 3 22 11 40 16 40 6 0 10 14 10
30 0 20 5 30 15 30 10 0 15 10 15 29 0 16 6 31 15 35 9 3 15 18 15 36 0 17 7
38 15 46 8 9 15 24 15 35 0 10 5 19 10 19 6 0 10 11 10 25 0 16 6 25 15 25 11
0 15 11 15 35 0 22 6 38 15 41 9 4 15 19 15 35 0 18 5 29 14 29 8 0 14 11 14
27 0 15 4 29 10 31 6 2 14 19 18 38 3 19 10 34 15 34 5 0 9 9 9 19 0 11 7 26
15 35 8 8 15 24 15 36 0 12 7 28 15 36 19 19 21 104 3 103 -7 0 -21 -8 -30
-18z"/>
<path d="M846 3844 c-3 -9 -6 -27 -6 -40 0 -13 -4 -24 -10 -24 -14 0 -12 -27
3 -34 10 -5 10 -7 0 -12 -10 -4 -13 -43 -13 -144 0 -122 -2 -140 -17 -150 -13
-8 -14 -13 -5 -16 14 -7 17 -54 2 -54 -6 0 -10 -50 -10 -130 0 -112 -2 -130
-17 -140 -15 -10 -15 -11 -2 -7 13 4 15 1 12 -14 -3 -10 -9 -19 -14 -19 -5 0
-9 -76 -9 -169 0 -124 -3 -170 -12 -173 -9 -3 -13 -74 -16 -274 -3 -186 -8
-271 -16 -276 -8 -6 -7 -8 2 -8 6 0 12 -9 12 -20 0 -11 -4 -20 -10 -20 -5 0
-10 -7 -10 -15 0 -8 5 -15 10 -15 14 0 12 -27 -2 -34 -10 -5 -10 -7 0 -12 8
-4 12 -35 12 -105 0 -81 3 -99 15 -99 12 0 15 18 15 99 0 71 4 101 13 103 9 4
13 48 15 166 2 89 8 162 13 162 14 0 11 28 -3 33 -10 4 -9 8 2 16 12 8 16 43
18 183 2 95 7 175 11 178 4 3 11 79 15 169 4 114 10 167 19 173 9 6 9 10 -3
18 -11 7 -12 12 -3 18 8 5 14 60 17 172 5 184 8 215 19 226 4 4 7 63 7 131 0
103 -2 123 -15 123 -9 0 -15 9 -15 25 0 28 -15 34 -24 9z"/>
<path d="M4640 3785 c0 -14 -4 -25 -9 -25 -5 0 -12 -13 -16 -30 -4 -16 -11
-30 -16 -30 -5 0 -9 -13 -9 -30 0 -20 -5 -30 -15 -30 -10 0 -15 -10 -15 -30 0
-18 -5 -30 -13 -30 -7 0 -14 -14 -15 -32 -2 -18 -6 -35 -11 -38 -5 -3 -12 -16
-16 -30 -4 -14 -12 -28 -18 -31 -5 -4 -9 -18 -9 -33 0 -15 -6 -26 -14 -26 -8
0 -14 -11 -14 -26 0 -14 -7 -32 -15 -40 -8 -9 -15 -26 -15 -39 0 -12 -7 -25
-15 -29 -8 -3 -15 -17 -15 -31 0 -14 -4 -25 -10 -25 -5 0 -10 -9 -10 -19 0
-11 -7 -26 -15 -35 -8 -8 -15 -26 -15 -40 0 -16 -6 -26 -15 -26 -11 0 -15 -11
-15 -40 0 -29 -4 -40 -15 -40 -9 0 -15 -9 -15 -25 0 -14 -4 -25 -10 -25 -5 0
-13 -18 -16 -41 -5 -27 -10 -36 -15 -27 -6 9 -9 2 -9 -19 0 -17 -7 -38 -15
-47 -8 -8 -15 -26 -15 -40 0 -16 -6 -26 -15 -26 -9 0 -15 -9 -15 -25 0 -14 -4
-25 -8 -25 -11 0 -30 -61 -24 -78 5 -17 62 -16 62 2 0 8 7 16 15 20 8 3 15 16
15 30 0 13 4 26 10 28 5 2 11 14 13 27 2 14 9 27 15 29 7 2 12 14 12 27 0 13
7 30 15 39 8 8 15 26 15 40 0 16 6 26 15 26 10 0 15 10 15 30 0 17 4 30 9 30
5 0 12 14 16 30 4 17 11 30 16 30 5 0 9 11 9 24 0 14 7 31 15 40 8 8 15 26 15
40 0 16 6 26 15 26 10 0 15 10 15 30 0 17 4 30 10 30 5 0 13 12 16 27 4 15 13
34 21 41 7 7 13 24 13 38 0 13 5 24 10 24 6 0 10 9 10 19 0 11 7 26 15 35 8 8
15 26 15 39 0 14 7 27 15 31 8 3 15 15 15 26 0 11 4 20 9 20 5 0 12 14 16 30
4 17 12 30 18 30 7 0 6 4 -3 10 -9 6 -10 10 -3 10 6 0 14 14 18 30 4 17 11 30
16 30 5 0 9 11 9 25 0 14 7 28 15 31 8 4 15 17 15 29 0 13 4 26 9 29 19 12
-12 51 -41 53 -24 2 -28 -2 -28 -22z"/>
<path d="M4754 3695 c-3 -14 -10 -25 -14 -25 -5 0 -11 -13 -15 -30 -4 -16 -11
-30 -16 -30 -5 0 -9 -11 -9 -24 0 -13 -7 -26 -15 -30 -8 -3 -15 -17 -15 -31 0
-14 -4 -25 -9 -25 -5 0 -12 -13 -16 -30 -4 -16 -11 -30 -16 -30 -5 0 -9 -10
-9 -23 0 -13 -7 -32 -15 -43 -8 -10 -15 -29 -15 -41 0 -14 -6 -23 -15 -23 -9
0 -15 -10 -15 -26 0 -14 -7 -32 -15 -40 -8 -9 -15 -24 -15 -35 0 -10 -4 -19
-9 -19 -5 0 -12 -16 -15 -35 -4 -19 -11 -35 -16 -35 -6 0 -10 -9 -10 -19 0
-11 -7 -26 -15 -35 -8 -8 -15 -26 -15 -40 0 -16 -6 -26 -15 -26 -10 0 -15 -10
-15 -30 0 -16 -4 -30 -10 -30 -5 0 -12 -11 -16 -25 -3 -14 -10 -25 -15 -25 -5
0 -9 -13 -9 -29 0 -16 -6 -36 -14 -43 -7 -8 -17 -24 -20 -36 -4 -12 -12 -22
-17 -22 -5 0 -9 -13 -9 -29 0 -16 -6 -31 -15 -35 -15 -5 -21 -51 -7 -59 15 -8
156 11 160 22 2 6 14 11 27 11 16 0 25 7 29 25 4 14 11 25 16 25 6 0 10 14 10
30 0 20 5 30 15 30 10 0 15 10 15 30 0 20 5 30 15 30 9 0 15 9 15 25 0 14 4
25 9 25 5 0 12 14 16 30 4 17 11 30 16 30 5 0 9 11 9 25 0 14 7 28 15 31 8 4
15 17 15 29 0 13 7 30 15 39 8 8 15 26 15 40 0 16 6 26 15 26 9 0 15 9 15 25
0 14 4 25 9 25 5 0 12 14 16 30 4 17 11 30 16 30 5 0 9 14 9 30 0 20 5 30 15
30 9 0 15 9 15 25 0 16 6 25 15 25 10 0 15 10 15 30 0 17 4 30 9 30 5 0 12 14
16 30 4 17 11 30 16 30 5 0 9 11 9 25 0 16 6 25 15 25 8 0 15 6 15 14 0 8 -7
16 -15 20 -8 3 -15 15 -15 26 0 11 -7 20 -15 20 -8 0 -15 7 -15 15 0 8 -4 15
-10 15 -5 0 -10 7 -10 15 0 8 -5 15 -11 15 -7 0 -22 11 -35 25 -13 14 -25 25
-28 25 -3 0 -8 -11 -12 -25z"/>
<path d="M955 3658 c-3 -18 -6 -70 -7 -114 -2 -45 -6 -80 -10 -78 -3 2 -8 -62
-10 -143 -2 -106 -6 -148 -15 -151 -7 -2 -13 -10 -13 -17 0 -7 6 -16 13 -18 9
-4 9 -8 1 -14 -8 -5 -13 -66 -16 -172 -3 -117 -7 -166 -16 -169 -9 -3 -12 -46
-12 -157 0 -97 -4 -155 -10 -157 -7 -2 -13 -64 -17 -153 -3 -83 -10 -153 -16
-156 -5 -4 -4 -9 4 -12 10 -4 10 -6 2 -6 -17 -1 -17 -28 0 -34 9 -4 9 -8 0
-14 -7 -5 -12 -55 -15 -141 -2 -105 -6 -135 -18 -142 -13 -9 -13 -10 0 -10 13
0 13 -1 0 -10 -8 -5 -10 -10 -4 -10 6 0 14 -18 18 -40 3 -22 11 -40 16 -40 6
0 10 -7 10 -15 0 -8 7 -15 15 -15 9 0 15 -9 15 -25 0 -16 6 -25 15 -25 8 0 15
-7 15 -15 0 -8 7 -15 15 -15 11 0 15 11 15 38 0 21 3 42 7 46 9 9 11 24 19
156 4 63 10 117 14 120 4 3 9 70 12 149 2 102 7 146 16 149 9 3 12 39 12 127
0 86 4 125 12 127 8 3 13 51 16 154 2 82 8 156 12 165 5 8 12 64 15 125 4 60
11 111 16 112 14 5 11 32 -3 32 -9 0 -10 3 -2 8 6 4 14 59 17 132 4 72 11 126
17 128 13 5 14 172 0 172 -5 0 -10 7 -10 15 0 8 -4 15 -10 15 -12 0 -80 68
-80 80 0 10 -36 50 -45 50 -2 0 -7 -15 -10 -32z"/>
<path d="M4950 3488 c0 -10 -7 -18 -15 -18 -9 0 -15 -9 -15 -21 0 -11 -7 -27
-15 -35 -8 -9 -15 -29 -15 -45 0 -16 -4 -29 -9 -29 -5 0 -12 -13 -16 -30 -4
-16 -11 -30 -16 -30 -5 0 -9 -7 -9 -15 0 -8 -7 -15 -15 -15 -11 0 -15 -11 -15
-40 0 -29 -4 -40 -15 -40 -9 0 -15 -9 -15 -24 0 -13 -5 -26 -12 -28 -6 -2 -13
-15 -15 -28 -2 -13 -7 -27 -11 -30 -13 -10 -42 -72 -42 -91 0 -10 -7 -19 -15
-19 -10 0 -15 -10 -15 -30 0 -16 -4 -30 -10 -30 -5 0 -12 -11 -16 -25 -3 -14
-10 -25 -14 -25 -5 0 -11 -13 -15 -30 -4 -16 -11 -30 -16 -30 -5 0 -9 -11 -9
-25 0 -14 -7 -28 -15 -31 -25 -10 -17 -24 15 -24 17 0 30 5 30 10 0 6 11 10
25 10 21 0 25 5 25 30 0 20 5 30 15 30 9 0 15 9 15 25 0 14 7 28 15 31 8 4 15
17 15 30 0 13 5 24 10 24 6 0 10 6 10 14 0 8 7 21 15 30 8 8 16 26 17 40 1 14
8 26 15 26 8 0 13 12 13 30 0 20 5 30 15 30 9 0 15 9 15 25 0 14 4 25 9 25 5
0 12 14 16 30 4 17 11 30 16 30 5 0 9 11 9 25 0 16 6 25 15 25 10 0 15 10 15
30 0 20 5 30 15 30 9 0 15 9 15 25 0 14 4 25 9 25 5 0 12 14 16 30 4 17 11 30
16 30 5 0 9 14 9 30 0 17 -3 30 -8 30 -4 0 -15 12 -24 28 -13 20 -18 22 -18
10z"/>
<path d="M5030 3295 c0 -8 -4 -15 -9 -15 -5 0 -12 -13 -16 -30 -4 -16 -11 -30
-16 -30 -5 0 -9 -11 -9 -25 0 -16 -6 -25 -15 -25 -10 0 -15 -10 -15 -30 0 -20
-5 -30 -15 -30 -10 0 -15 -10 -15 -30 0 -16 -4 -30 -10 -30 -5 0 -12 -11 -16
-25 -3 -14 -10 -25 -14 -25 -4 0 -11 -11 -14 -25 -4 -14 -11 -25 -16 -25 -6 0
-10 -13 -10 -30 0 -20 -5 -30 -15 -30 -10 0 -15 -10 -15 -30 0 -20 -5 -30 -15
-30 -16 0 -20 -15 -7 -24 12 -7 52 5 52 16 0 5 12 23 28 38 44 48 52 58 52 75
0 8 7 15 15 15 9 0 15 9 15 24 0 13 7 26 15 30 8 3 15 17 15 31 0 14 5 25 10
25 6 0 10 9 10 20 0 11 7 23 15 26 9 4 15 19 15 35 0 19 5 29 15 29 10 0 15
10 15 31 0 17 4 28 10 24 6 -3 10 1 10 9 0 9 -4 16 -10 16 -5 0 -10 14 -10 30
0 20 -5 30 -15 30 -8 0 -15 -7 -15 -15z"/>
<path d="M1407 3285 c-3 -11 -8 -33 -11 -48 -4 -15 -10 -25 -15 -23 -5 3 -9
-36 -10 -87 -1 -50 -6 -93 -12 -95 -13 -5 -12 -32 2 -32 6 0 3 -7 -5 -16 -12
-12 -16 -36 -16 -100 0 -46 -4 -84 -9 -84 -4 0 -12 -53 -16 -117 -3 -65 -10
-120 -14 -123 -5 -3 -11 -52 -14 -110 -3 -59 -11 -106 -16 -108 -7 -2 -11 -38
-11 -87 0 -57 -4 -85 -12 -88 -9 -4 -8 -6 2 -6 13 -1 13 -2 0 -11 -11 -7 -15
-36 -18 -117 -3 -59 -9 -111 -15 -114 -5 -4 -12 -50 -15 -103 -2 -53 -8 -96
-12 -96 -7 0 -19 -124 -22 -213 -1 -20 -3 -25 -9 -15 -5 8 -9 -21 -9 -69 0
-67 3 -83 15 -83 8 0 15 -7 15 -15 0 -8 7 -15 15 -15 8 0 15 -4 15 -10 0 -5
11 -12 25 -16 14 -3 25 -12 25 -20 0 -8 7 -14 15 -14 8 0 15 -4 15 -9 0 -5 12
-12 27 -16 21 -5 24 -8 12 -16 -10 -6 -7 -9 14 -9 17 0 27 -5 27 -15 0 -22 27
-18 40 5 6 11 13 49 17 85 3 36 9 65 13 65 4 0 10 41 12 91 3 50 10 94 16 98
6 4 12 41 13 83 1 43 5 75 9 73 14 -8 20 25 20 103 0 54 3 72 10 62 5 -8 10
-13 10 -10 0 3 3 46 7 95 3 50 10 93 15 96 4 3 11 42 15 87 3 45 10 82 14 82
5 0 9 31 9 69 0 49 5 74 15 85 11 10 15 37 15 94 0 56 4 81 13 85 9 3 14 30
16 83 1 44 7 81 13 85 6 4 13 44 16 88 2 45 8 81 12 81 4 0 10 35 12 77 3 45
10 79 17 81 6 2 11 18 11 36 0 25 -6 36 -25 46 -14 7 -25 17 -25 22 0 4 -13 8
-30 8 -20 0 -30 5 -30 15 0 8 -7 15 -15 15 -8 0 -15 4 -15 10 0 5 -11 12 -25
16 -14 3 -25 10 -25 14 0 4 -11 11 -25 14 -14 4 -25 11 -25 16 0 6 -9 10 -20
10 -11 0 -20 7 -20 15 0 8 -6 15 -14 15 -8 0 -16 6 -19 13 -2 7 -6 4 -10 -8z"/>
<path d="M5060 3021 c0 -6 4 -13 10 -16 6 -3 7 1 4 9 -7 18 -14 21 -14 7z"/>
<path d="M5037 2983 c-4 -3 -7 -15 -7 -25 0 -10 -4 -18 -10 -18 -5 0 -12 -11
-16 -25 -3 -14 -10 -25 -14 -25 -5 0 -10 -12 -12 -27 -2 -16 -8 -27 -15 -25
-8 1 -13 -9 -13 -28 0 -20 -5 -30 -15 -30 -9 0 -15 -9 -15 -25 0 -20 -5 -25
-25 -25 -14 0 -28 -7 -31 -15 -4 -8 -17 -15 -30 -15 -19 0 -24 -5 -24 -25 0
-16 -6 -25 -15 -25 -9 0 -15 -9 -15 -21 0 -12 -5 -19 -12 -16 -7 2 -12 10 -10
16 1 6 -11 11 -28 11 -20 0 -30 -5 -30 -15 0 -8 -7 -15 -15 -15 -9 0 -15 -9
-15 -21 0 -11 -7 -27 -15 -35 -8 -9 -15 -24 -15 -35 0 -10 -4 -19 -9 -19 -5 0
-12 -11 -15 -25 -4 -14 -11 -25 -16 -25 -6 0 -10 -13 -10 -30 0 -20 -5 -30
-15 -30 -9 0 -15 -9 -15 -24 0 -13 -7 -26 -15 -30 -8 -3 -15 -17 -15 -31 0
-14 -4 -25 -9 -25 -5 0 -12 -11 -15 -25 -4 -14 -11 -25 -16 -25 -6 0 -10 -13
-10 -30 0 -20 -5 -30 -15 -30 -9 0 -15 -9 -15 -25 0 -14 -7 -28 -15 -31 -8 -4
-15 -17 -15 -30 0 -13 -4 -24 -9 -24 -5 0 -12 -13 -16 -30 -4 -16 -11 -30 -16
-30 -5 0 -9 -11 -9 -25 0 -16 -6 -25 -15 -25 -9 0 -15 -9 -15 -25 0 -14 -7
-28 -15 -31 -8 -4 -15 -16 -15 -29 0 -13 -7 -25 -15 -29 -8 -3 -15 -17 -15
-31 0 -14 -4 -25 -10 -25 -5 0 -12 -11 -16 -25 -3 -14 -10 -25 -15 -25 -5 0
-9 -13 -9 -30 0 -20 -5 -30 -15 -30 -9 0 -15 -9 -15 -24 0 -13 -7 -26 -15 -30
-8 -3 -15 -15 -15 -26 0 -12 -7 -28 -15 -36 -8 -9 -15 -24 -15 -35 0 -11 -4
-17 -10 -14 -5 3 -10 -3 -10 -14 0 -11 -7 -26 -15 -35 -8 -8 -15 -26 -15 -40
0 -16 -6 -26 -15 -26 -9 0 -15 -9 -15 -25 0 -16 -6 -25 -15 -25 -10 0 -15 -10
-15 -30 0 -16 -4 -30 -9 -30 -5 0 -12 -11 -15 -25 -4 -14 -11 -25 -16 -25 -6
0 -10 -11 -10 -25 0 -14 -7 -28 -15 -31 -8 -4 -15 -16 -15 -29 0 -13 -7 -25
-15 -29 -8 -3 -15 -17 -15 -31 0 -14 -4 -25 -10 -25 -5 0 -10 -7 -10 -15 0 -9
9 -15 25 -15 16 0 25 6 25 15 0 8 7 15 15 15 10 0 15 10 15 30 0 32 8 37 29
17 11 -9 14 -9 18 1 3 6 9 12 14 12 12 0 49 37 49 50 0 6 4 10 10 10 5 0 12
11 16 25 3 14 10 25 14 25 4 0 11 11 14 25 5 18 13 25 31 25 14 0 25 5 25 11
0 6 7 17 15 25 8 9 15 24 15 35 0 10 -7 19 -15 19 -8 0 -15 5 -15 10 0 16 22
12 35 -7 11 -15 13 -13 20 15 3 18 11 32 16 32 5 0 9 11 9 25 0 16 6 25 15 25
8 0 15 9 15 20 0 11 4 20 10 20 5 0 13 12 16 27 4 15 13 34 21 41 7 7 13 20
13 28 0 8 5 14 10 14 6 0 10 11 10 25 0 16 6 25 15 25 10 0 15 10 15 30 0 20
5 30 15 30 9 0 15 9 15 25 0 14 4 25 9 25 5 0 12 14 16 30 4 17 11 30 16 30 5
0 11 11 15 25 3 14 10 25 15 25 5 0 9 14 9 30 0 20 5 30 15 30 9 0 15 9 15 25
0 16 6 25 15 25 10 0 15 10 15 30 0 20 5 30 15 30 9 0 15 9 15 25 0 14 5 25
10 25 6 0 10 7 10 15 0 9 7 18 15 21 8 4 15 17 15 30 0 15 6 24 15 24 9 0 15
9 15 21 0 11 7 27 15 35 8 9 15 24 15 35 0 10 4 19 9 19 5 0 12 11 15 25 4 14
11 25 16 25 6 0 10 7 10 15 0 9 7 18 15 21 9 4 15 19 15 39 0 20 6 35 15 39 8
3 15 12 15 21 0 8 4 15 10 15 5 0 12 16 16 35 3 19 10 35 15 35 5 0 9 9 9 20
0 11 7 23 15 26 8 4 15 13 15 21 0 8 7 21 15 29 8 9 15 27 15 40 0 14 11 35
24 47 12 12 26 39 30 60 4 20 11 37 16 37 6 0 10 18 10 39 0 25 5 41 15 45 8
3 15 15 15 26 0 20 -11 26 -23 13z m-287 -413 c0 -11 -4 -20 -10 -20 -5 0 -10
9 -10 20 0 11 5 20 10 20 6 0 10 -9 10 -20z m-20 -55 c0 -8 -4 -15 -10 -15 -5
0 -12 -11 -16 -25 -3 -14 -12 -25 -20 -25 -19 0 -18 19 1 26 8 4 15 17 15 30
0 15 6 24 15 24 8 0 15 -7 15 -15z m-60 -110 c0 -8 -7 -15 -15 -15 -9 0 -12 6
-9 15 4 8 10 15 15 15 5 0 9 -7 9 -15z m-30 -55 c0 -11 -4 -20 -10 -20 -5 0
-10 9 -10 20 0 11 5 20 10 20 6 0 10 -9 10 -20z m-41 -71 c-8 -5 -21 -8 -29
-8 -11 1 -10 3 3 6 10 3 17 15 18 31 l0 27 12 -23 c8 -19 8 -25 -4 -33z m-9
-34 c0 -9 -7 -18 -15 -21 -8 -4 -15 -17 -15 -30 0 -15 -6 -24 -15 -24 -8 0
-15 6 -15 14 0 8 7 21 15 30 8 8 15 22 15 30 0 9 7 16 15 16 8 0 15 -7 15 -15z
m-60 -110 c0 -14 -4 -25 -10 -25 -5 0 -10 11 -10 25 0 14 5 25 10 25 6 0 10
-11 10 -25z m-30 -60 c0 -8 -4 -15 -10 -15 -5 0 -10 7 -10 15 0 8 5 15 10 15
6 0 10 -7 10 -15z m-30 -25 c0 -5 -4 -10 -10 -10 -5 0 -10 5 -10 10 0 6 5 10
10 10 6 0 10 -4 10 -10z m0 -35 c0 -8 -4 -15 -10 -15 -5 0 -10 7 -10 15 0 8 5
15 10 15 6 0 10 -7 10 -15z m-20 -50 c0 -8 -7 -15 -15 -15 -8 0 -15 7 -15 15
0 8 7 15 15 15 8 0 15 -7 15 -15z m-30 -55 c0 -11 -4 -20 -9 -20 -11 0 -22 26
-14 34 12 12 23 5 23 -14z m-30 -55 c0 -8 -4 -15 -10 -15 -5 0 -10 7 -10 15 0
8 5 15 10 15 6 0 10 -7 10 -15z m-30 -50 c0 -14 -4 -25 -10 -25 -5 0 -12 -11
-16 -25 -3 -14 -10 -25 -15 -25 -5 0 -9 11 -9 25 0 16 6 25 15 25 9 0 15 9 15
25 0 14 5 25 10 25 6 0 10 -11 10 -25z m-50 -111 c0 -14 -5 -24 -11 -22 -6 2
-10 7 -10 11 1 4 1 14 1 22 0 8 5 15 10 15 6 0 10 -12 10 -26z m80 16 c0 -5
-4 -10 -10 -10 -5 0 -10 5 -10 10 0 6 5 10 10 10 6 0 10 -4 10 -10z m-110 -65
c0 -14 -4 -25 -10 -25 -5 0 -10 11 -10 25 0 14 5 25 10 25 6 0 10 -11 10 -25z
m-30 -60 c0 -14 -4 -25 -10 -25 -5 0 -10 11 -10 25 0 14 5 25 10 25 6 0 10
-11 10 -25z m80 15 c0 -5 -4 -10 -10 -10 -5 0 -10 5 -10 10 0 6 5 10 10 10 6
0 10 -4 10 -10z m-110 -65 c0 -14 -4 -25 -10 -25 -5 0 -10 11 -10 25 0 14 5
25 10 25 6 0 10 -11 10 -25z m90 10 c0 -8 -4 -15 -10 -15 -5 0 -10 7 -10 15 0
8 5 15 10 15 6 0 10 -7 10 -15z m-110 -70 c0 -16 -6 -25 -15 -25 -8 0 -15 -7
-15 -15 0 -8 -4 -15 -10 -15 -5 0 -10 7 -10 15 0 8 5 15 10 15 6 0 10 11 10
25 0 16 6 25 15 25 9 0 15 -9 15 -25z m80 15 c0 -5 -4 -10 -10 -10 -5 0 -10 5
-10 10 0 6 5 10 10 10 6 0 10 -4 10 -10z m-30 -55 c0 -8 -2 -15 -4 -15 -2 0
-6 7 -10 15 -3 8 -1 15 4 15 6 0 10 -7 10 -15z m-110 -57 c0 -7 -4 -19 -9 -27
-6 -9 -8 -5 -8 13 0 14 3 26 8 26 5 0 9 -6 9 -12z m-30 -53 c0 -8 -4 -15 -10
-15 -5 0 -10 7 -10 15 0 8 5 15 10 15 6 0 10 -7 10 -15z m90 0 c0 -8 -7 -15
-15 -15 -8 0 -15 7 -15 15 0 8 7 15 15 15 8 0 15 -7 15 -15z m-111 -52 c0 -5
-4 -17 -9 -28 -8 -18 -9 -17 -9 8 -1 15 4 27 9 27 6 0 10 -3 9 -7z m-29 -68
c0 -14 -4 -25 -9 -25 -10 0 -21 36 -13 44 12 13 22 5 22 -19z m-30 -60 c0 -14
-4 -25 -10 -25 -5 0 -10 11 -10 25 0 14 5 25 10 25 6 0 10 -11 10 -25z"/>
<path d="M2035 2920 c-3 -11 -11 -20 -16 -20 -5 0 -9 -27 -9 -60 0 -37 -4 -60
-11 -60 -6 0 -9 -7 -5 -15 3 -8 1 -15 -4 -15 -6 0 -10 -25 -10 -55 0 -37 -4
-55 -12 -55 -10 0 -10 -2 0 -9 11 -7 11 -9 -2 -14 -12 -5 -16 -21 -16 -71 0
-35 -4 -66 -9 -68 -5 -1 -12 -28 -15 -58 -3 -30 -10 -56 -16 -58 -5 -2 -10
-29 -10 -60 0 -71 -9 -109 -21 -90 -5 8 -9 -14 -9 -55 0 -47 -5 -73 -15 -83
-10 -11 -15 -36 -15 -80 0 -35 -4 -64 -9 -64 -5 0 -13 -29 -16 -65 -4 -36 -11
-65 -16 -65 -5 0 -9 -17 -9 -37 0 -62 -12 -116 -21 -101 -5 8 -9 -14 -9 -55 0
-47 -5 -73 -15 -83 -10 -10 -15 -35 -15 -74 0 -32 -5 -60 -10 -62 -6 -2 -13
-33 -17 -71 -3 -37 -9 -67 -13 -67 -4 0 -10 -30 -13 -66 -3 -37 -10 -70 -17
-74 -9 -6 -9 -9 1 -13 10 -4 10 -6 2 -6 -19 -1 -17 -61 2 -61 8 0 15 -4 15
-10 0 -5 11 -10 25 -10 23 0 25 3 25 51 0 31 6 56 15 65 10 10 15 35 15 68 0
30 7 70 15 89 8 20 15 54 15 76 0 22 4 41 10 43 5 2 13 31 16 66 4 34 11 62
15 62 5 0 9 25 9 55 0 37 5 57 15 62 10 6 15 30 16 85 1 50 6 76 13 75 7 -1
12 20 14 56 2 31 7 57 12 57 5 0 12 32 16 70 3 39 11 70 15 70 5 0 9 24 9 54
0 35 5 60 15 70 10 9 15 34 15 70 0 35 5 60 15 70 10 9 15 34 15 69 0 34 5 57
12 59 6 2 13 31 16 66 2 34 8 62 12 62 4 0 10 30 13 67 4 38 11 69 17 71 5 2
10 28 10 57 0 64 9 93 21 73 6 -8 9 2 9 30 0 40 -1 42 -30 42 -16 0 -30 5 -30
10 0 18 -18 11 -25 -10z"/>
<path d="M1051 2794 c0 -11 3 -14 6 -6 3 7 2 16 -1 19 -3 4 -6 -2 -5 -13z"/>
<path d="M2356 2794 c-11 -10 -16 -34 -16 -69 0 -31 -5 -55 -11 -57 -6 -2 -14
-27 -17 -56 -2 -29 -8 -52 -12 -52 -4 0 -10 -23 -12 -51 -3 -28 -10 -54 -16
-58 -6 -3 -12 -31 -14 -61 -2 -34 -7 -54 -14 -53 -7 1 -11 -3 -11 -10 2 -78
-4 -127 -18 -127 -11 0 -15 -12 -15 -45 0 -25 -4 -45 -9 -45 -5 0 -12 -29 -16
-65 -3 -36 -11 -65 -16 -65 -5 0 -9 -20 -9 -44 0 -26 -6 -51 -15 -60 -9 -9
-15 -34 -15 -66 0 -36 -4 -52 -15 -56 -11 -5 -15 -21 -15 -59 0 -31 -5 -55
-11 -57 -6 -2 -14 -27 -17 -56 -2 -29 -8 -52 -13 -52 -5 0 -9 -20 -9 -44 0
-26 -6 -51 -15 -60 -9 -9 -15 -34 -15 -65 0 -31 -4 -51 -11 -51 -6 0 -9 -7 -5
-15 3 -8 1 -15 -4 -15 -6 0 -10 -23 -10 -51 0 -31 -6 -56 -15 -65 -9 -9 -15
-34 -15 -60 0 -24 -4 -44 -9 -44 -5 0 -12 -25 -16 -55 -3 -30 -11 -55 -16 -55
-18 0 -8 -19 14 -26 12 -4 24 -10 27 -15 3 -5 23 -11 44 -14 32 -6 38 -4 43
14 3 12 9 21 13 21 4 0 10 23 12 51 3 28 10 54 16 58 6 3 12 29 14 56 2 33 7
49 16 47 8 -1 12 14 12 54 0 36 5 61 15 70 9 9 15 34 15 59 0 24 4 45 9 47 5
2 12 25 15 52 3 28 10 52 15 55 4 3 11 28 14 56 3 27 10 51 16 53 6 2 11 24
11 48 0 24 5 44 11 44 5 0 7 5 4 10 -3 6 -1 10 4 10 6 0 11 21 11 49 0 27 5
51 11 53 6 2 13 25 16 51 3 26 11 47 17 47 6 0 4 5 -4 10 -8 5 -10 10 -4 10 6
0 14 19 17 42 3 24 11 44 16 46 6 2 11 25 11 50 0 26 7 56 15 66 8 11 15 39
15 62 0 23 5 44 10 46 6 2 13 26 17 53 3 28 9 52 13 55 4 3 10 26 14 53 4 26
11 47 17 47 5 0 9 19 9 43 0 24 7 52 15 63 8 10 15 36 15 57 0 21 7 45 15 53
8 9 15 33 15 55 0 28 -4 39 -15 39 -8 0 -15 7 -15 15 0 11 -11 15 -39 15 -25
0 -41 5 -45 15 -7 19 -21 19 -40 -1z"/>
<path d="M2675 2692 c-3 -3 -5 -23 -5 -44 0 -21 -4 -38 -10 -38 -5 0 -10 -18
-10 -40 0 -29 -4 -40 -15 -40 -12 0 -15 -13 -15 -55 0 -42 -3 -55 -15 -55 -11
0 -15 -13 -15 -54 0 -30 -5 -56 -10 -58 -6 -2 -13 -21 -17 -43 -3 -22 -9 -42
-13 -45 -4 -3 -10 -25 -14 -50 -3 -25 -11 -46 -16 -48 -6 -2 -10 -23 -10 -47
0 -25 -6 -50 -15 -59 -8 -8 -15 -32 -15 -55 0 -27 -4 -41 -13 -41 -9 0 -14
-17 -16 -52 -1 -29 -6 -55 -10 -58 -5 -3 -12 -24 -16 -47 -4 -24 -10 -43 -15
-43 -4 0 -10 -21 -13 -47 -3 -26 -10 -49 -16 -51 -6 -2 -11 -23 -11 -47 0 -25
-6 -50 -15 -59 -8 -8 -15 -32 -15 -54 0 -22 -5 -42 -11 -44 -6 -2 -14 -27 -17
-56 -2 -29 -8 -52 -13 -52 -5 0 -9 -13 -9 -29 0 -16 -7 -36 -15 -45 -8 -8 -15
-32 -15 -55 0 -22 -7 -46 -15 -55 -8 -8 -15 -31 -15 -51 0 -20 -7 -43 -15 -51
-9 -9 -15 -34 -15 -59 0 -24 -4 -45 -9 -47 -4 -2 -11 -20 -15 -40 l-7 -38 44
0 c42 0 43 0 45 37 2 21 8 40 14 44 6 4 13 30 16 58 2 28 8 51 13 51 5 0 9 15
9 34 0 19 7 41 15 50 8 8 15 32 15 56 0 23 4 39 9 36 11 -7 21 27 21 71 0 17
5 33 11 35 5 2 13 22 16 46 3 23 9 42 13 42 5 0 11 23 15 50 4 28 11 50 16 50
5 0 9 18 9 39 0 51 10 78 21 59 5 -8 9 9 9 45 0 44 3 57 15 57 11 0 15 12 15
50 0 28 4 50 9 50 6 0 13 20 17 45 3 25 10 45 14 45 4 0 10 19 13 42 3 24 11
44 16 46 6 2 11 26 11 53 0 35 4 51 15 55 10 4 15 20 15 44 0 21 5 40 11 42 6
2 14 27 17 56 2 29 8 52 12 52 4 0 10 19 13 42 3 24 11 44 16 46 6 2 11 21 11
42 0 21 7 45 15 54 8 8 15 31 15 51 0 20 7 43 15 51 9 9 15 34 15 60 0 32 -4
44 -15 44 -8 0 -15 6 -15 14 0 13 -43 20 -55 8z"/>
<path d="M3006 2570 c-3 -22 -11 -40 -16 -40 -6 0 -10 -18 -10 -40 0 -29 -4
-40 -15 -40 -11 0 -15 -12 -15 -46 0 -25 -4 -43 -9 -40 -10 6 -21 -26 -21 -61
0 -13 -4 -23 -10 -23 -5 0 -10 -13 -10 -29 0 -16 -7 -36 -15 -45 -8 -8 -15
-32 -15 -55 0 -30 -4 -41 -15 -41 -11 0 -15 -11 -15 -38 0 -21 -7 -47 -15 -58
-8 -10 -15 -36 -15 -56 0 -21 -4 -38 -10 -38 -5 0 -13 -18 -16 -40 -4 -22 -10
-40 -15 -40 -5 0 -9 -13 -9 -29 0 -16 -7 -36 -15 -45 -8 -8 -15 -32 -15 -55 0
-30 -4 -41 -15 -41 -11 0 -15 -11 -15 -41 0 -23 -7 -47 -15 -55 -8 -9 -15 -29
-15 -45 0 -16 -4 -29 -10 -29 -5 0 -10 -18 -10 -39 0 -22 -7 -46 -15 -55 -8
-8 -15 -28 -15 -45 0 -16 -7 -36 -15 -45 -8 -8 -15 -30 -15 -49 0 -20 -5 -37
-11 -39 -5 -2 -13 -22 -16 -46 -3 -23 -9 -42 -13 -42 -5 0 -11 -18 -15 -40 -4
-22 -11 -40 -16 -40 -5 0 -9 -18 -9 -40 0 -29 -4 -40 -15 -40 -11 0 -15 -12
-15 -44 0 -26 -6 -51 -15 -60 -8 -8 -15 -33 -15 -56 0 -39 1 -41 28 -38 24 3
27 7 30 46 2 23 7 42 12 42 6 0 13 18 16 40 4 22 10 40 15 40 5 0 9 13 9 29 0
16 7 36 15 45 8 8 15 32 15 55 0 30 4 41 15 41 11 0 15 11 15 40 0 22 4 40 10
40 5 0 13 18 16 40 4 22 10 40 15 40 5 0 9 18 9 40 0 27 5 43 15 46 10 4 15
20 15 45 0 28 4 39 15 39 11 0 15 11 15 41 0 23 7 47 15 55 8 9 15 33 15 54 0
21 4 40 9 42 6 2 13 19 16 38 3 19 10 37 15 40 5 3 10 23 12 44 1 21 8 40 15
43 8 3 13 22 13 44 0 28 4 39 15 39 11 0 15 11 15 41 0 23 7 47 15 55 8 9 15
29 15 45 0 16 5 29 10 29 6 0 10 13 10 28 0 16 7 37 15 48 8 10 15 36 15 57 0
26 4 37 15 37 11 0 15 11 15 36 0 19 7 42 15 50 8 9 15 29 15 45 0 16 4 29 9
29 4 0 11 19 14 42 3 24 11 44 16 46 6 2 11 21 11 43 0 28 4 39 15 39 20 0 19
6 -5 30 -33 33 -56 26 -64 -20z"/>
<path d="M4548 2583 c-10 -2 -18 -9 -18 -14 0 -5 -18 -9 -40 -9 -36 0 -40 -2
-40 -25 0 -14 -7 -28 -15 -31 -8 -4 -15 -17 -15 -30 0 -13 -4 -24 -9 -24 -5 0
-12 -13 -16 -30 -4 -16 -10 -30 -15 -30 -5 0 -11 -13 -15 -30 -4 -16 -11 -30
-16 -30 -5 0 -9 -11 -9 -25 0 -17 -6 -25 -17 -25 -15 0 -16 -2 -3 -10 10 -6
11 -10 3 -10 -7 0 -13 -7 -13 -16 0 -8 -7 -22 -15 -30 -8 -9 -15 -24 -15 -35
0 -10 -4 -19 -9 -19 -5 0 -12 -16 -15 -35 -4 -19 -11 -35 -15 -35 -5 0 -12
-11 -15 -25 -4 -14 -11 -25 -16 -25 -6 0 -10 -13 -10 -30 0 -20 -5 -30 -15
-30 -10 0 -15 -10 -15 -30 0 -21 -5 -30 -16 -30 -8 0 -13 -4 -10 -8 3 -5 -2
-21 -10 -36 -7 -16 -14 -37 -14 -47 0 -11 -7 -19 -15 -19 -10 0 -15 -10 -15
-30 0 -20 -5 -30 -15 -30 -9 0 -15 -9 -15 -24 0 -13 -7 -26 -15 -30 -9 -3 -15
-18 -15 -40 0 -21 -6 -36 -15 -40 -8 -3 -15 -12 -15 -21 0 -8 -6 -15 -12 -15
-9 0 -8 -4 2 -10 10 -6 11 -10 3 -10 -7 0 -13 -7 -13 -15 0 -8 -7 -15 -15 -15
-11 0 -15 -11 -15 -40 0 -29 -4 -40 -15 -40 -9 0 -15 -9 -15 -24 0 -13 -7 -26
-15 -30 -8 -3 -15 -17 -15 -31 0 -14 -4 -25 -9 -25 -5 0 -12 -13 -16 -30 -4
-16 -11 -30 -16 -30 -5 0 -9 -11 -9 -25 0 -16 -6 -25 -15 -25 -9 0 -15 -10
-15 -26 0 -14 -7 -32 -15 -40 -8 -9 -15 -24 -15 -35 0 -10 -4 -19 -10 -19 -5
0 -10 -11 -10 -25 0 -15 -6 -25 -14 -25 -8 0 -16 -16 -20 -40 -3 -22 -11 -40
-16 -40 -6 0 -10 -11 -10 -25 0 -14 -4 -25 -10 -25 -5 0 -10 -7 -10 -15 0 -8
5 -15 10 -15 6 0 10 5 10 10 0 6 11 10 25 10 14 0 28 7 31 15 4 8 17 15 30 15
20 0 24 5 24 30 0 20 5 30 15 30 9 0 15 9 15 25 0 14 4 25 9 25 5 0 12 13 16
30 4 16 11 30 16 30 5 0 9 11 9 25 0 14 7 28 15 31 8 4 15 17 15 29 0 13 7 30
15 39 8 8 15 20 15 26 0 6 7 18 15 26 8 9 15 26 15 39 0 12 7 25 15 29 8 3 15
12 15 21 0 8 5 15 10 15 6 0 10 11 10 24 0 14 7 31 15 40 8 8 15 20 15 26 0 6
7 18 15 26 8 9 15 26 15 39 0 12 7 25 15 29 8 3 15 17 15 31 0 14 4 25 9 25 5
0 12 14 16 30 4 17 11 30 16 30 5 0 9 11 9 25 0 16 6 25 15 25 10 0 15 10 15
30 0 20 5 30 15 30 9 0 15 9 15 25 0 14 4 25 9 25 5 0 12 14 16 30 4 17 11 30
16 30 5 0 9 11 9 25 0 14 7 28 15 31 8 4 15 16 15 29 0 13 7 25 15 29 8 3 15
17 15 31 0 16 6 25 15 25 9 0 15 9 15 25 0 14 4 25 9 25 5 0 12 14 16 30 4 17
11 30 16 30 5 0 9 11 9 24 0 13 7 26 15 30 8 3 15 17 15 31 0 14 6 25 14 25 8
0 14 10 14 24 0 14 7 32 16 41 9 9 16 23 16 31 0 8 5 14 10 14 6 0 10 11 10
25 0 14 7 28 15 31 8 4 15 17 15 29 0 13 4 25 10 27 13 4 17 50 5 53 -5 1 -18
1 -27 -2z"/>
<path d="M3248 2539 c-10 -10 -18 -34 -18 -53 0 -21 -6 -36 -15 -40 -10 -3
-15 -19 -15 -46 0 -22 -4 -40 -10 -40 -5 0 -13 -18 -16 -40 -4 -22 -10 -40
-15 -40 -5 0 -12 -18 -15 -40 -4 -22 -10 -40 -15 -40 -5 0 -9 -13 -9 -29 0
-16 -7 -36 -15 -45 -8 -8 -15 -32 -15 -55 0 -30 -4 -41 -15 -41 -11 0 -15 -11
-15 -40 0 -22 -4 -40 -10 -40 -5 0 -10 -9 -10 -19 0 -11 -7 -26 -15 -35 -8 -8
-15 -31 -15 -50 0 -28 -4 -36 -17 -36 -15 0 -16 -2 -3 -10 10 -6 11 -10 3 -10
-8 0 -13 -13 -13 -31 0 -17 -7 -37 -15 -45 -8 -9 -15 -27 -15 -40 0 -14 -7
-32 -15 -40 -8 -9 -15 -29 -15 -45 0 -16 -4 -29 -9 -29 -5 0 -11 -18 -15 -40
-3 -22 -11 -40 -16 -40 -6 0 -10 -18 -10 -40 0 -27 -5 -43 -15 -46 -10 -4 -15
-20 -15 -45 0 -28 -4 -39 -15 -39 -11 0 -15 -11 -15 -40 0 -22 -4 -40 -10 -40
-5 0 -13 -18 -16 -40 -4 -22 -10 -40 -15 -40 -5 0 -9 -13 -9 -30 0 -20 -5 -30
-15 -30 -11 0 -15 -12 -15 -45 0 -33 -4 -45 -15 -45 -11 0 -15 -11 -15 -40 0
-22 -4 -40 -10 -40 -5 0 -13 -18 -16 -40 -4 -22 -10 -40 -15 -40 -5 0 -9 -18
-9 -40 l0 -40 133 0 132 1 18 38 c9 20 17 49 17 63 0 14 7 28 15 32 9 3 15 18
15 40 0 21 6 36 15 40 9 3 15 18 15 36 0 16 4 30 10 30 5 0 12 16 16 35 3 19
10 35 15 35 5 0 9 14 9 30 0 18 6 33 15 36 9 4 15 19 15 39 0 20 6 35 15 39 9
3 15 19 15 41 0 20 7 43 15 51 8 9 15 24 15 35 0 10 4 19 9 19 5 0 11 18 15
40 3 22 11 40 16 40 6 0 10 10 10 23 0 12 7 31 15 41 8 11 15 31 15 44 0 13 7
30 15 38 8 9 15 24 15 35 0 10 5 19 10 19 6 0 10 16 10 35 0 21 6 38 14 41 7
3 16 23 20 45 3 21 11 39 16 39 6 0 10 14 10 30 0 17 5 30 13 30 8 0 7 4 -3
10 -13 8 -12 10 3 10 12 0 17 8 17 30 0 17 4 30 10 30 5 0 13 18 16 41 5 27
10 36 15 27 6 -8 9 0 9 25 0 24 5 40 15 43 10 4 15 20 15 45 0 28 4 39 15 39
10 0 15 10 15 34 0 21 6 36 15 40 9 3 15 18 15 36 0 16 4 30 9 30 5 0 11 18
15 40 3 22 11 40 16 40 6 0 10 13 10 29 0 16 5 31 11 33 9 3 8 10 -1 25 -12
18 -26 21 -119 25 -67 3 -106 9 -109 16 -6 19 -75 13 -94 -9z"/>
<path d="M4238 2519 c-5 -14 -63 -18 -280 -19 -151 0 -178 -2 -178 -15 0 -8
-4 -15 -10 -15 -5 0 -10 -11 -10 -24 0 -14 -7 -31 -15 -40 -8 -8 -15 -26 -15
-41 0 -14 -7 -28 -15 -31 -9 -4 -15 -19 -15 -39 0 -20 -6 -35 -15 -39 -8 -3
-15 -16 -15 -30 0 -13 -4 -26 -9 -28 -6 -1 -13 -19 -16 -38 -3 -19 -10 -36
-16 -38 -5 -2 -9 -17 -9 -33 0 -19 -5 -29 -15 -29 -10 0 -15 -10 -15 -29 0
-16 -7 -36 -15 -45 -8 -8 -15 -24 -15 -36 0 -12 -7 -28 -15 -36 -8 -9 -15 -29
-15 -45 0 -16 -4 -29 -9 -29 -5 0 -12 -13 -16 -30 -4 -16 -11 -30 -16 -30 -5
0 -9 -12 -9 -26 0 -14 -7 -32 -15 -40 -8 -9 -15 -26 -15 -39 0 -12 -7 -25 -15
-29 -8 -3 -15 -16 -15 -28 0 -13 -7 -32 -15 -42 -8 -11 -15 -30 -15 -43 0 -13
-4 -23 -10 -23 -5 0 -10 -13 -10 -30 0 -20 -5 -30 -15 -30 -11 0 -15 -11 -15
-40 0 -29 -4 -40 -15 -40 -10 0 -15 -10 -15 -30 0 -16 -4 -30 -10 -30 -5 0
-13 -18 -16 -40 -4 -22 -10 -40 -14 -40 -4 0 -11 -12 -15 -27 -3 -15 -11 -30
-15 -33 -5 -3 -10 -22 -12 -42 -1 -20 -7 -36 -12 -35 -6 1 -12 -11 -14 -27 -2
-16 -10 -35 -18 -43 -8 -8 -14 -28 -14 -44 0 -16 -4 -29 -10 -29 -5 0 -12 -11
-16 -25 -3 -14 -10 -25 -15 -25 -5 0 -9 -13 -9 -30 0 -20 -5 -30 -15 -30 -11
0 -15 -11 -15 -40 l0 -40 40 0 c22 0 40 4 40 9 0 5 37 11 82 13 49 3 84 10 86
16 2 7 26 12 58 12 41 0 54 4 54 15 0 11 11 15 41 15 42 0 69 17 69 44 0 9 7
16 15 16 10 0 15 11 15 35 0 24 5 35 15 35 10 0 15 10 15 29 0 16 3 31 8 33
12 5 42 68 42 89 0 10 7 19 15 19 10 0 15 10 15 29 0 16 6 31 15 35 8 3 15 17
15 31 0 14 4 25 9 25 11 0 32 56 24 64 -4 3 -1 6 5 6 7 0 12 9 12 19 0 11 7
26 15 35 8 8 15 24 15 36 0 11 7 23 15 26 8 4 15 17 15 30 0 13 4 24 9 24 5 0
12 14 16 30 4 17 11 30 16 30 5 0 9 11 9 25 0 14 7 28 15 31 8 4 15 17 15 30
0 15 6 24 15 24 9 0 15 10 15 26 0 14 7 32 15 40 8 9 15 24 15 35 0 10 6 19
13 19 8 0 7 4 -3 10 -10 6 -11 10 -3 10 7 0 15 11 19 25 3 14 10 25 15 25 5 0
9 14 9 30 0 20 5 30 15 30 10 0 15 10 15 30 0 20 5 30 15 30 9 0 15 10 15 26
0 14 7 32 15 40 8 9 15 27 15 42 0 21 2 24 10 12 8 -12 10 -9 10 12 0 15 7 33
15 42 8 8 15 26 15 40 0 16 6 26 15 26 10 0 15 10 15 30 0 20 5 30 15 30 10 0
15 10 15 30 0 17 4 30 9 30 5 0 12 14 16 30 4 17 11 30 16 30 5 0 9 11 9 25 0
16 6 25 15 25 11 0 15 11 15 40 0 39 -1 40 -34 40 -19 0 -36 -5 -38 -11z"/>
</g>
</svg>
